<svg xmlns="http://www.w3.org/2000/svg" width="693.496" height="626" viewBox="0 0 693.496 626">
  <g id="software-engineer" transform="translate(-33.687 -46.412)">
    <path id="Tracé_8" data-name="Tracé 8" d="M511.485,78.44C432.877,26.636,322.41,37.105,252.917,114c-38,42.057-53.428,99.907-92.868,141.062-44.4,46.389-97.471,91.424-117.6,154.6-21.389,67.146-2.617,144.13,45.215,195.483C145.88,667.6,231.438,648.823,312.3,647.83c331.129-4.152,577.242-225.175,264.073-497.641C550.2,127.266,537.477,95.5,511.485,78.44Z" fill="#111" opacity="0.63"/>
    <path id="Tracé_9" data-name="Tracé 9" d="M664.957,121.6H106.306A20.26,20.26,0,0,0,86,141.816V526.554H685.263V141.816A20.26,20.26,0,0,0,664.957,121.6Z" transform="translate(-5.1 -7.33)" fill="#d3d3d3"/>
    <path id="Tracé_10" data-name="Tracé 10" d="M665.151,131H107.945A12.518,12.518,0,0,0,95.4,143.545v378.24H677.7V143.545A12.518,12.518,0,0,0,665.151,131Z" transform="translate(-6.017 -8.247)" fill="#121212"/>
    <rect id="Rectangle_49" data-name="Rectangle 49" width="540.42" height="349.36" transform="translate(110.321 150.731)" fill="#171717"/>
    <path id="Tracé_11" data-name="Tracé 11" d="M420.737,148.069A3.069,3.069,0,1,1,417.669,145,3.162,3.162,0,0,1,420.737,148.069Z" transform="translate(-37.137 -9.612)" fill="#f6f6f6"/>
    <rect id="Rectangle_50" data-name="Rectangle 50" width="54.15" height="9.567" transform="translate(178.1 170.044)" fill="#afcbe1"/>
    <rect id="Rectangle_51" data-name="Rectangle 51" width="22.292" height="9.567" transform="translate(129.184 170.044)" fill="#d8d8d8"/>
    <rect id="Rectangle_52" data-name="Rectangle 52" width="22.292" height="9.567" transform="translate(129.184 187.553)" fill="#d8d8d8"/>
    <rect id="Rectangle_53" data-name="Rectangle 53" width="22.292" height="9.567" transform="translate(129.184 208.311)" fill="#d8d8d8"/>
    <rect id="Rectangle_54" data-name="Rectangle 54" width="22.292" height="9.567" transform="translate(129.184 228.978)" fill="#d8d8d8"/>
    <rect id="Rectangle_55" data-name="Rectangle 55" width="22.292" height="9.567" transform="translate(129.184 249.736)" fill="#d8d8d8"/>
    <rect id="Rectangle_56" data-name="Rectangle 56" width="22.292" height="9.567" transform="translate(129.184 270.403)" fill="#d8d8d8"/>
    <rect id="Rectangle_57" data-name="Rectangle 57" width="181.674" height="9.567" transform="translate(243.441 170.044)" fill="#d8d8d8"/>
    <rect id="Rectangle_58" data-name="Rectangle 58" width="54.15" height="9.567" transform="translate(197.233 187.553)" fill="#afcbe1"/>
    <rect id="Rectangle_59" data-name="Rectangle 59" width="181.674" height="9.567" transform="translate(262.574 187.553)" fill="#d8d8d8"/>
    <rect id="Rectangle_60" data-name="Rectangle 60" width="54.15" height="9.567" transform="translate(229.181 208.311)" fill="#afcbe1"/>
    <rect id="Rectangle_61" data-name="Rectangle 61" width="181.674" height="9.567" transform="translate(294.523 208.311)" fill="#d8d8d8"/>
    <rect id="Rectangle_62" data-name="Rectangle 62" width="54.15" height="9.567" transform="translate(261.04 228.978)" fill="#afcbe1"/>
    <rect id="Rectangle_63" data-name="Rectangle 63" width="181.674" height="9.567" transform="translate(326.381 228.978)" fill="#d8d8d8"/>
    <rect id="Rectangle_64" data-name="Rectangle 64" width="54.15" height="9.567" transform="translate(229.181 249.736)" fill="#afcbe1"/>
    <rect id="Rectangle_65" data-name="Rectangle 65" width="277.34" height="9.567" transform="translate(294.523 249.736)" fill="#d8d8d8"/>
    <rect id="Rectangle_66" data-name="Rectangle 66" width="54.15" height="9.567" transform="translate(197.233 270.403)" fill="#afcbe1"/>
    <rect id="Rectangle_67" data-name="Rectangle 67" width="117.957" height="9.567" transform="translate(262.574 270.403)" fill="#d8d8d8"/>
    <rect id="Rectangle_68" data-name="Rectangle 68" width="54.15" height="9.567" transform="translate(178.1 297.568)" fill="#afcbe1" opacity="0.4"/>
    <rect id="Rectangle_69" data-name="Rectangle 69" width="22.292" height="9.567" transform="translate(129.184 297.568)" fill="#d8d8d8" opacity="0.4"/>
    <rect id="Rectangle_70" data-name="Rectangle 70" width="22.292" height="9.567" transform="translate(129.184 315.077)" fill="#d8d8d8" opacity="0.4"/>
    <rect id="Rectangle_71" data-name="Rectangle 71" width="22.292" height="9.567" transform="translate(129.184 335.834)" fill="#d8d8d8" opacity="0.4"/>
    <rect id="Rectangle_72" data-name="Rectangle 72" width="22.292" height="9.567" transform="translate(129.184 356.502)" fill="#d8d8d8" opacity="0.4"/>
    <rect id="Rectangle_73" data-name="Rectangle 73" width="22.292" height="9.567" transform="translate(129.184 377.259)" fill="#d8d8d8" opacity="0.4"/>
    <rect id="Rectangle_74" data-name="Rectangle 74" width="22.292" height="9.567" transform="translate(129.184 397.927)" fill="#d8d8d8" opacity="0.4"/>
    <rect id="Rectangle_75" data-name="Rectangle 75" width="181.674" height="9.567" transform="translate(243.441 297.568)" fill="#d8d8d8" opacity="0.4"/>
    <rect id="Rectangle_76" data-name="Rectangle 76" width="54.15" height="9.567" transform="translate(197.233 315.077)" fill="#afcbe1" opacity="0.4"/>
    <rect id="Rectangle_77" data-name="Rectangle 77" width="181.674" height="9.567" transform="translate(262.574 315.077)" fill="#d8d8d8" opacity="0.4"/>
    <rect id="Rectangle_78" data-name="Rectangle 78" width="54.15" height="9.567" transform="translate(229.181 335.834)" fill="#afcbe1" opacity="0.4"/>
    <rect id="Rectangle_79" data-name="Rectangle 79" width="181.674" height="9.567" transform="translate(294.523 335.834)" fill="#d8d8d8" opacity="0.4"/>
    <rect id="Rectangle_80" data-name="Rectangle 80" width="54.15" height="9.567" transform="translate(178.1 425.002)" fill="#afcbe1" opacity="0.4"/>
    <rect id="Rectangle_81" data-name="Rectangle 81" width="22.292" height="9.567" transform="translate(129.184 425.002)" fill="#d8d8d8" opacity="0.4"/>
    <rect id="Rectangle_82" data-name="Rectangle 82" width="22.292" height="9.567" transform="translate(129.184 442.601)" fill="#d8d8d8" opacity="0.4"/>
    <rect id="Rectangle_83" data-name="Rectangle 83" width="22.292" height="9.567" transform="translate(129.184 463.268)" fill="#d8d8d8" opacity="0.4"/>
    <rect id="Rectangle_84" data-name="Rectangle 84" width="181.674" height="9.567" transform="translate(243.441 425.002)" fill="#d8d8d8" opacity="0.4"/>
    <rect id="Rectangle_85" data-name="Rectangle 85" width="54.15" height="9.567" transform="translate(197.233 442.601)" fill="#afcbe1" opacity="0.4"/>
    <rect id="Rectangle_86" data-name="Rectangle 86" width="181.674" height="9.567" transform="translate(262.574 442.601)" fill="#d8d8d8" opacity="0.4"/>
    <rect id="Rectangle_87" data-name="Rectangle 87" width="54.15" height="9.567" transform="translate(229.181 463.268)" fill="#afcbe1" opacity="0.4"/>
    <rect id="Rectangle_88" data-name="Rectangle 88" width="181.674" height="9.567" transform="translate(294.523 463.268)" fill="#d8d8d8" opacity="0.4"/>
    <rect id="Rectangle_89" data-name="Rectangle 89" width="54.15" height="9.567" transform="translate(261.04 356.502)" fill="#afcbe1" opacity="0.4"/>
    <rect id="Rectangle_90" data-name="Rectangle 90" width="277.34" height="9.567" transform="translate(326.381 356.502)" fill="#d8d8d8" opacity="0.4"/>
    <rect id="Rectangle_91" data-name="Rectangle 91" width="54.15" height="9.567" transform="translate(229.181 377.259)" fill="#afcbe1" opacity="0.4"/>
    <rect id="Rectangle_92" data-name="Rectangle 92" width="181.674" height="9.567" transform="translate(294.523 377.259)" fill="#d8d8d8" opacity="0.4"/>
    <rect id="Rectangle_93" data-name="Rectangle 93" width="54.15" height="9.567" transform="translate(197.233 397.927)" fill="#afcbe1" opacity="0.4"/>
    <rect id="Rectangle_94" data-name="Rectangle 94" width="181.674" height="9.567" transform="translate(262.574 397.927)" fill="#d8d8d8" opacity="0.4"/>
    <path id="Tracé_12" data-name="Tracé 12" d="M719.994,562.7H41.13A7.145,7.145,0,0,0,34,569.83v9.206a7.145,7.145,0,0,0,7.13,7.13H720.084a7.145,7.145,0,0,0,7.13-7.13V569.83A7.222,7.222,0,0,0,719.994,562.7Z" transform="translate(-0.03 -50.336)" fill="#d3d3d3"/>
    <path id="Tracé_13" data-name="Tracé 13" d="M469.621,574H353.2a2.8,2.8,0,1,0,0,5.6H469.711a2.812,2.812,0,0,0,2.8-2.8A2.953,2.953,0,0,0,469.621,574Z" transform="translate(-30.878 -51.437)" fill="#f7f7f7"/>
    <path id="Tracé_14" data-name="Tracé 14" d="M587.635,674.669l-.09,14.53s1.805,9.3,3.339,19.223c1.444,9.928,2.617,20.487,1.083,22.924-2.978,4.874-8.845,0-9.837-4.874s-2.437-35.288-2.437-35.288L578.7,671.6Zm14.8-1.986-2.256,13.086s-4.422,35.739-1.985,41.154,10.289,2.978,9.837-4.422c-.451-7.31,1.444-33.3,1.444-33.3l4.422-15.7Z" transform="translate(-53.136 -60.953)" fill="#f2bac9"/>
    <path id="Tracé_15" data-name="Tracé 15" d="M590.715,496.241l-1.083,16.065,41.515,20.036a17.968,17.968,0,0,1,8.664,20.938l-28.7,106.766-14.26-4.513L609.4,557.341a11.156,11.156,0,0,0-9.3-12.635l-14.8-2.346-15.7-16.065,18.231,16.335a17.807,17.807,0,0,1,5.776,15.7l-11.642,99.185-12.906,3.249-5.776-97.561A15.145,15.145,0,0,0,552.81,549.85l-25.541-8.123a14.182,14.182,0,0,1-6.769-11.642l1.083-34.385Z" transform="translate(-47.462 -43.803)" fill="#171717"/>
    <path id="Tracé_16" data-name="Tracé 16" d="M518.7,521.6l6.859-133.39S553.9,386.5,562.381,386.5c4.6,0,12.455,2.166,18.682,4.152,5.866,1.9,10.65,1.715,13.538,7.13l46.479,89.167-28.609,2.708-9.567-10.83,4.874-7.31-17.418-40.974L593.789,505Z" transform="translate(-47.286 -33.067)" fill="#e9f6d6"/>
    <path id="Tracé_17" data-name="Tracé 17" d="M598.742,417.3l30.866,55.685-9.567,11.281a16.161,16.161,0,0,1-7.581-.451l-1.715-1.986,4.874-7.31L598.2,433.545Z" transform="translate(-55.037 -36.16)" fill="#0f0f0f" opacity="0.08"/>
    <path id="Tracé_18" data-name="Tracé 18" d="M565.534,426.852c-9.386,0-26.534-24.458-26.534-33.844a17.92,17.92,0,0,1,.9-5.415c8.754-.451,19.675-.993,24.458-.993a40.6,40.6,0,0,1,7.762,1.083,17.342,17.342,0,0,1,.9,5.325C572.934,402.394,574.92,426.852,565.534,426.852Z" transform="translate(-49.266 -33.167)" fill="#fff"/>
    <path id="Tracé_19" data-name="Tracé 19" d="M522.13,414,518.7,525.1l45.847-11.01Z" transform="translate(-47.286 -35.838)" fill="#0f0f0f" opacity="0.08"/>
    <path id="Tracé_20" data-name="Tracé 20" d="M568.045,370.542c-.812,1.624-6.408,23.465-6.408,23.465a6.956,6.956,0,0,1-6.769,3.159c-4.783-.361-6.769-7.13-6.769-7.13l8.393-27.436Z" transform="translate(-50.153 -30.827)" fill="#fcd2b1"/>
    <path id="Tracé_21" data-name="Tracé 21" d="M537.6,353.556c0,15.072,15.974,31.768,31.046,31.768s23.465-16.7,23.465-31.768a27.256,27.256,0,0,0-54.511,0Z" transform="translate(-49.129 -27.288)" fill="#ffbcc6"/>
    <circle id="Ellipse_1" data-name="Ellipse 1" cx="30.685" cy="30.685" r="30.685" transform="translate(481.125 303.103) rotate(-9.259)" fill="#ffe3ca"/>
    <path id="Tracé_22" data-name="Tracé 22" d="M561.9,521.425c1.173-.361,11.281-5.325,18.411-5.325s15.884,7.581,15.884,7.581,1.173,3.971-3.61,3.159.632,2.978.632,2.978a43.819,43.819,0,0,1-5.866.993c-5.6.812-27.256-.361-27.256-.361Z" transform="translate(-51.323 -45.792)" fill="#ffe3ca"/>
    <path id="Tracé_23" data-name="Tracé 23" d="M523.343,388.5l-3.881,87.723,36.1,32.671-1.715,9.206-50.811-27.165a13.439,13.439,0,0,1-6.949-13.538l9.3-67.146a24.144,24.144,0,0,1,13.357-19.494Zm28.609,137.091h91.875v-6.769H551.953a3.332,3.332,0,0,0-3.339,3.339h0A3.3,3.3,0,0,0,551.953,525.591Z" transform="translate(-45.071 -33.352)" fill="#e9f6d6"/>
    <path id="Tracé_24" data-name="Tracé 24" d="M585.9,532.171h88.626a8.774,8.774,0,0,0,8.393-6.408l15.613-58.934A8.636,8.636,0,0,0,690.139,456H612.795a8.774,8.774,0,0,0-8.393,6.408Z" transform="translate(-53.838 -39.933)" fill="#d4e4bc"/>
    <path id="Tracé_25" data-name="Tracé 25" d="M585.9,532.171h88.626a8.774,8.774,0,0,0,8.393-6.408l15.613-58.934A8.636,8.636,0,0,0,690.139,456H612.795a8.774,8.774,0,0,0-8.393,6.408Z" transform="translate(-53.838 -39.933)" fill="#d4e4bc" opacity="0.22"/>
    <path id="Tracé_26" data-name="Tracé 26" d="M643.676,503.249c-.993,3.881,1.444,6.949,5.415,6.949a9.763,9.763,0,0,0,8.935-6.949c.993-3.881-1.444-6.949-5.415-6.949A9.536,9.536,0,0,0,643.676,503.249Z" transform="translate(-59.449 -43.862)" fill="#fff"/>
    <path id="Tracé_27" data-name="Tracé 27" d="M566.684,324.9c16.568,0,30.107,12.17,32,27.751a26.87,26.87,0,0,1-19.787,4.7,25.839,25.839,0,0,1-18.84-14.106,42.588,42.588,0,0,1-.095,10.418,14.221,14.221,0,0,1-4.923,9.035,16.7,16.7,0,0,0-1.7-7.1c-1.326-2.121-4.071-3.6-6.343-2.674a5.085,5.085,0,0,0-3.03,4.057,9.793,9.793,0,0,0,.852,5.163,21.345,21.345,0,0,0,4.45,6.915,49.424,49.424,0,0,1-11.645.645,31.12,31.12,0,0,1-3.219-13.553C534.4,338.914,548.885,324.9,566.684,324.9Z" transform="matrix(1, 0.017, -0.017, 1, -44.14, -37.948)" fill="#121212"/>
    <path id="Tracé_28" data-name="Tracé 28" d="M539.2,363.5a9.3,9.3,0,1,0,9.3-9.3A9.283,9.283,0,0,0,539.2,363.5Z" transform="translate(-49.285 -30.008)" fill="#ffe3ca"/>
    <path id="Tracé_29" data-name="Tracé 29" d="M604.825,672.8l-1.625,9.837,9.747,3.068,2.708-9.657Z" transform="translate(-55.525 -61.07)" fill="#ffe3ca"/>
    <path id="Tracé_30" data-name="Tracé 30" d="M587.574,685.92l-8.122,1.534L579,677.166,587.664,675Z" transform="translate(-53.165 -61.284)" fill="#ffe3ca"/>
    <circle id="Ellipse_2" data-name="Ellipse 2" cx="13.718" cy="13.718" r="13.718" transform="translate(485.493 284.482)" fill="#121212"/>
  </g>
</svg>
